<svg width="31" height="12" viewBox="0 0 31 12" fill="none" xmlns="http://www.w3.org/2000/svg">
<mask id="path-1-outside-1_67_27" maskUnits="userSpaceOnUse" x="-0.5" y="0.776001" width="32" height="11" fill="black">
<rect fill="white" x="-0.5" y="0.776001" width="32" height="11"/>
<path d="M1.27084 2.52276C1.38503 2.52276 1.50331 2.55487 1.62567 2.61911C1.75618 2.67532 1.85406 2.7516 1.91932 2.84796L4.89254 7.35257L4.28077 7.32848L7.32741 2.84796C7.48239 2.63116 7.68224 2.52276 7.92695 2.52276C8.12271 2.52276 8.29809 2.59101 8.45307 2.72751C8.60805 2.86401 8.68555 3.04067 8.68555 3.25747V10.2312C8.68555 10.44 8.61621 10.6166 8.47754 10.7611C8.33887 10.8976 8.15534 10.9659 7.92695 10.9659C7.69855 10.9659 7.51094 10.8976 7.36411 10.7611C7.22544 10.6166 7.15611 10.44 7.15611 10.2312V4.55826L7.63329 4.66666L5.13725 8.41248C5.06384 8.50081 4.97003 8.57709 4.85584 8.64133C4.7498 8.70556 4.63968 8.73367 4.52548 8.72564C4.41944 8.73367 4.30932 8.70556 4.19512 8.64133C4.08908 8.57709 3.99935 8.50081 3.92594 8.41248L1.58896 4.77506L1.90708 4.13671V10.2312C1.90708 10.44 1.84183 10.6166 1.71131 10.7611C1.5808 10.8976 1.40951 10.9659 1.19742 10.9659C0.993498 10.9659 0.82628 10.8976 0.695768 10.7611C0.565256 10.6166 0.5 10.44 0.5 10.2312V3.25747C0.5 3.05673 0.573413 2.88409 0.720239 2.73956C0.875222 2.59502 1.05875 2.52276 1.27084 2.52276Z"/>
<path d="M13.486 11.0863C12.7926 11.0863 12.189 10.9458 11.6751 10.6648C11.1694 10.3757 10.7778 9.98629 10.5005 9.49648C10.2313 9.00667 10.0967 8.45263 10.0967 7.83435C10.0967 7.11168 10.2436 6.49742 10.5372 5.99155C10.839 5.47766 11.2306 5.0842 11.7118 4.8112C12.1931 4.53819 12.7029 4.40169 13.2413 4.40169C13.6573 4.40169 14.0488 4.486 14.4159 4.65462C14.7911 4.82324 15.1214 5.0561 15.4069 5.3532C15.6924 5.64226 15.9168 5.97951 16.0799 6.36493C16.2512 6.75035 16.3368 7.15986 16.3368 7.59346C16.3287 7.78617 16.2512 7.94275 16.1044 8.06319C15.9575 8.18364 15.7862 8.24386 15.5905 8.24386H10.9165L10.5495 7.03942H15.0399L14.7707 7.28031V6.95511C14.7544 6.72225 14.6687 6.51348 14.5138 6.3288C14.3669 6.14411 14.1793 5.99958 13.9509 5.8952C13.7307 5.78278 13.4941 5.72657 13.2413 5.72657C12.9966 5.72657 12.7682 5.75869 12.5561 5.82293C12.344 5.88717 12.1605 5.99557 12.0055 6.14813C11.8505 6.30069 11.7281 6.50545 11.6384 6.7624C11.5487 7.01934 11.5038 7.34454 11.5038 7.73799C11.5038 8.17159 11.5935 8.54096 11.773 8.84608C11.9606 9.14318 12.1972 9.37202 12.4827 9.53261C12.7763 9.68518 13.0863 9.76146 13.4126 9.76146C13.7144 9.76146 13.955 9.73737 14.1345 9.68919C14.3139 9.64101 14.4567 9.58481 14.5627 9.52057C14.6769 9.4483 14.7789 9.38808 14.8686 9.3399C15.0154 9.26764 15.1541 9.2315 15.2846 9.2315C15.464 9.2315 15.6109 9.29173 15.7251 9.41217C15.8474 9.53261 15.9086 9.67313 15.9086 9.83372C15.9086 10.0505 15.7944 10.2473 15.566 10.4239C15.3539 10.6006 15.0562 10.7571 14.6728 10.8936C14.2894 11.0221 13.8938 11.0863 13.486 11.0863Z"/>
<path d="M21.119 4.40169C21.7226 4.40169 22.1794 4.52615 22.4894 4.77506C22.8075 5.02398 23.0237 5.35721 23.1379 5.77475C23.2602 6.18426 23.3214 6.64195 23.3214 7.14782V10.2312C23.3214 10.44 23.2521 10.6166 23.1134 10.7611C22.9747 10.8976 22.7993 10.9659 22.5873 10.9659C22.3752 10.9659 22.1998 10.8976 22.0611 10.7611C21.9225 10.6166 21.8531 10.44 21.8531 10.2312V7.14782C21.8531 6.88284 21.8164 6.64597 21.743 6.4372C21.6778 6.2204 21.5554 6.04776 21.376 5.91928C21.1965 5.79081 20.9396 5.72657 20.6051 5.72657C20.2788 5.72657 20.0015 5.79081 19.7731 5.91928C19.5529 6.04776 19.3816 6.2204 19.2592 6.4372C19.145 6.64597 19.0879 6.88284 19.0879 7.14782V10.2312C19.0879 10.44 19.0186 10.6166 18.8799 10.7611C18.7412 10.8976 18.5659 10.9659 18.3538 10.9659C18.1417 10.9659 17.9663 10.8976 17.8277 10.7611C17.689 10.6166 17.6197 10.44 17.6197 10.2312V5.25684C17.6197 5.04807 17.689 4.87543 17.8277 4.73893C17.9663 4.5944 18.1417 4.52213 18.3538 4.52213C18.5659 4.52213 18.7412 4.5944 18.8799 4.73893C19.0186 4.87543 19.0879 5.04807 19.0879 5.25684V5.77475L18.9044 5.73862C18.9778 5.60211 19.0838 5.45758 19.2225 5.30502C19.3612 5.14443 19.5243 4.99588 19.7119 4.85937C19.8995 4.72287 20.1116 4.61447 20.3482 4.53418C20.5847 4.44585 20.8417 4.40169 21.119 4.40169Z"/>
<path d="M29.7659 4.52213C29.978 4.52213 30.1533 4.5944 30.292 4.73893C30.4307 4.87543 30.5 5.04807 30.5 5.25684V8.31613C30.5 9.16727 30.2594 9.84175 29.7781 10.3396C29.2968 10.8374 28.6035 11.0863 27.6981 11.0863C26.7926 11.0863 26.0993 10.8374 25.618 10.3396C25.1449 9.84175 24.9084 9.16727 24.9084 8.31613V5.25684C24.9084 5.04807 24.9777 4.87543 25.1164 4.73893C25.2551 4.5944 25.4304 4.52213 25.6425 4.52213C25.8546 4.52213 26.03 4.5944 26.1686 4.73893C26.3073 4.87543 26.3766 5.04807 26.3766 5.25684V8.31613C26.3766 8.80593 26.4868 9.17128 26.707 9.41217C26.9272 9.64503 27.2576 9.76146 27.6981 9.76146C28.1467 9.76146 28.4811 9.64503 28.7014 9.41217C28.9216 9.17128 29.0317 8.80593 29.0317 8.31613V5.25684C29.0317 5.04807 29.1011 4.87543 29.2397 4.73893C29.3784 4.5944 29.5538 4.52213 29.7659 4.52213ZM27.7715 4.11262C27.7062 4.11262 27.6206 4.0805 27.5145 4.01626C27.4167 3.944 27.3718 3.84363 27.3799 3.71515C27.3799 3.64289 27.4044 3.56661 27.4534 3.48631L28.163 2.25778C28.2364 2.1293 28.3302 2.01689 28.4444 1.92053C28.5586 1.82418 28.6891 1.776 28.836 1.776C29.0644 1.776 29.2316 1.83622 29.3376 1.95667C29.4437 2.06908 29.4926 2.2096 29.4845 2.37822C29.4763 2.45852 29.4518 2.54283 29.411 2.63116C29.3784 2.71948 29.3254 2.80781 29.252 2.89613L28.3221 3.90786C28.2405 3.99619 28.1508 4.0524 28.0529 4.07649C27.955 4.10058 27.8612 4.11262 27.7715 4.11262Z"/>
</mask>
<path d="M1.27084 2.52276C1.38503 2.52276 1.50331 2.55487 1.62567 2.61911C1.75618 2.67532 1.85406 2.7516 1.91932 2.84796L4.89254 7.35257L4.28077 7.32848L7.32741 2.84796C7.48239 2.63116 7.68224 2.52276 7.92695 2.52276C8.12271 2.52276 8.29809 2.59101 8.45307 2.72751C8.60805 2.86401 8.68555 3.04067 8.68555 3.25747V10.2312C8.68555 10.44 8.61621 10.6166 8.47754 10.7611C8.33887 10.8976 8.15534 10.9659 7.92695 10.9659C7.69855 10.9659 7.51094 10.8976 7.36411 10.7611C7.22544 10.6166 7.15611 10.44 7.15611 10.2312V4.55826L7.63329 4.66666L5.13725 8.41248C5.06384 8.50081 4.97003 8.57709 4.85584 8.64133C4.7498 8.70556 4.63968 8.73367 4.52548 8.72564C4.41944 8.73367 4.30932 8.70556 4.19512 8.64133C4.08908 8.57709 3.99935 8.50081 3.92594 8.41248L1.58896 4.77506L1.90708 4.13671V10.2312C1.90708 10.44 1.84183 10.6166 1.71131 10.7611C1.5808 10.8976 1.40951 10.9659 1.19742 10.9659C0.993498 10.9659 0.82628 10.8976 0.695768 10.7611C0.565256 10.6166 0.5 10.44 0.5 10.2312V3.25747C0.5 3.05673 0.573413 2.88409 0.720239 2.73956C0.875222 2.59502 1.05875 2.52276 1.27084 2.52276Z" fill="#5C4A3C"/>
<path d="M13.486 11.0863C12.7926 11.0863 12.189 10.9458 11.6751 10.6648C11.1694 10.3757 10.7778 9.98629 10.5005 9.49648C10.2313 9.00667 10.0967 8.45263 10.0967 7.83435C10.0967 7.11168 10.2436 6.49742 10.5372 5.99155C10.839 5.47766 11.2306 5.0842 11.7118 4.8112C12.1931 4.53819 12.7029 4.40169 13.2413 4.40169C13.6573 4.40169 14.0488 4.486 14.4159 4.65462C14.7911 4.82324 15.1214 5.0561 15.4069 5.3532C15.6924 5.64226 15.9168 5.97951 16.0799 6.36493C16.2512 6.75035 16.3368 7.15986 16.3368 7.59346C16.3287 7.78617 16.2512 7.94275 16.1044 8.06319C15.9575 8.18364 15.7862 8.24386 15.5905 8.24386H10.9165L10.5495 7.03942H15.0399L14.7707 7.28031V6.95511C14.7544 6.72225 14.6687 6.51348 14.5138 6.3288C14.3669 6.14411 14.1793 5.99958 13.9509 5.8952C13.7307 5.78278 13.4941 5.72657 13.2413 5.72657C12.9966 5.72657 12.7682 5.75869 12.5561 5.82293C12.344 5.88717 12.1605 5.99557 12.0055 6.14813C11.8505 6.30069 11.7281 6.50545 11.6384 6.7624C11.5487 7.01934 11.5038 7.34454 11.5038 7.73799C11.5038 8.17159 11.5935 8.54096 11.773 8.84608C11.9606 9.14318 12.1972 9.37202 12.4827 9.53261C12.7763 9.68518 13.0863 9.76146 13.4126 9.76146C13.7144 9.76146 13.955 9.73737 14.1345 9.68919C14.3139 9.64101 14.4567 9.58481 14.5627 9.52057C14.6769 9.4483 14.7789 9.38808 14.8686 9.3399C15.0154 9.26764 15.1541 9.2315 15.2846 9.2315C15.464 9.2315 15.6109 9.29173 15.7251 9.41217C15.8474 9.53261 15.9086 9.67313 15.9086 9.83372C15.9086 10.0505 15.7944 10.2473 15.566 10.4239C15.3539 10.6006 15.0562 10.7571 14.6728 10.8936C14.2894 11.0221 13.8938 11.0863 13.486 11.0863Z" fill="#5C4A3C"/>
<path d="M21.119 4.40169C21.7226 4.40169 22.1794 4.52615 22.4894 4.77506C22.8075 5.02398 23.0237 5.35721 23.1379 5.77475C23.2602 6.18426 23.3214 6.64195 23.3214 7.14782V10.2312C23.3214 10.44 23.2521 10.6166 23.1134 10.7611C22.9747 10.8976 22.7993 10.9659 22.5873 10.9659C22.3752 10.9659 22.1998 10.8976 22.0611 10.7611C21.9225 10.6166 21.8531 10.44 21.8531 10.2312V7.14782C21.8531 6.88284 21.8164 6.64597 21.743 6.4372C21.6778 6.2204 21.5554 6.04776 21.376 5.91928C21.1965 5.79081 20.9396 5.72657 20.6051 5.72657C20.2788 5.72657 20.0015 5.79081 19.7731 5.91928C19.5529 6.04776 19.3816 6.2204 19.2592 6.4372C19.145 6.64597 19.0879 6.88284 19.0879 7.14782V10.2312C19.0879 10.44 19.0186 10.6166 18.8799 10.7611C18.7412 10.8976 18.5659 10.9659 18.3538 10.9659C18.1417 10.9659 17.9663 10.8976 17.8277 10.7611C17.689 10.6166 17.6197 10.44 17.6197 10.2312V5.25684C17.6197 5.04807 17.689 4.87543 17.8277 4.73893C17.9663 4.5944 18.1417 4.52213 18.3538 4.52213C18.5659 4.52213 18.7412 4.5944 18.8799 4.73893C19.0186 4.87543 19.0879 5.04807 19.0879 5.25684V5.77475L18.9044 5.73862C18.9778 5.60211 19.0838 5.45758 19.2225 5.30502C19.3612 5.14443 19.5243 4.99588 19.7119 4.85937C19.8995 4.72287 20.1116 4.61447 20.3482 4.53418C20.5847 4.44585 20.8417 4.40169 21.119 4.40169Z" fill="#5C4A3C"/>
<path d="M29.7659 4.52213C29.978 4.52213 30.1533 4.5944 30.292 4.73893C30.4307 4.87543 30.5 5.04807 30.5 5.25684V8.31613C30.5 9.16727 30.2594 9.84175 29.7781 10.3396C29.2968 10.8374 28.6035 11.0863 27.6981 11.0863C26.7926 11.0863 26.0993 10.8374 25.618 10.3396C25.1449 9.84175 24.9084 9.16727 24.9084 8.31613V5.25684C24.9084 5.04807 24.9777 4.87543 25.1164 4.73893C25.2551 4.5944 25.4304 4.52213 25.6425 4.52213C25.8546 4.52213 26.03 4.5944 26.1686 4.73893C26.3073 4.87543 26.3766 5.04807 26.3766 5.25684V8.31613C26.3766 8.80593 26.4868 9.17128 26.707 9.41217C26.9272 9.64503 27.2576 9.76146 27.6981 9.76146C28.1467 9.76146 28.4811 9.64503 28.7014 9.41217C28.9216 9.17128 29.0317 8.80593 29.0317 8.31613V5.25684C29.0317 5.04807 29.1011 4.87543 29.2397 4.73893C29.3784 4.5944 29.5538 4.52213 29.7659 4.52213ZM27.7715 4.11262C27.7062 4.11262 27.6206 4.0805 27.5145 4.01626C27.4167 3.944 27.3718 3.84363 27.3799 3.71515C27.3799 3.64289 27.4044 3.56661 27.4534 3.48631L28.163 2.25778C28.2364 2.1293 28.3302 2.01689 28.4444 1.92053C28.5586 1.82418 28.6891 1.776 28.836 1.776C29.0644 1.776 29.2316 1.83622 29.3376 1.95667C29.4437 2.06908 29.4926 2.2096 29.4845 2.37822C29.4763 2.45852 29.4518 2.54283 29.411 2.63116C29.3784 2.71948 29.3254 2.80781 29.252 2.89613L28.3221 3.90786C28.2405 3.99619 28.1508 4.0524 28.0529 4.07649C27.955 4.10058 27.8612 4.11262 27.7715 4.11262Z" fill="#5C4A3C"/>
<path d="M1.27084 2.52276C1.38503 2.52276 1.50331 2.55487 1.62567 2.61911C1.75618 2.67532 1.85406 2.7516 1.91932 2.84796L4.89254 7.35257L4.28077 7.32848L7.32741 2.84796C7.48239 2.63116 7.68224 2.52276 7.92695 2.52276C8.12271 2.52276 8.29809 2.59101 8.45307 2.72751C8.60805 2.86401 8.68555 3.04067 8.68555 3.25747V10.2312C8.68555 10.44 8.61621 10.6166 8.47754 10.7611C8.33887 10.8976 8.15534 10.9659 7.92695 10.9659C7.69855 10.9659 7.51094 10.8976 7.36411 10.7611C7.22544 10.6166 7.15611 10.44 7.15611 10.2312V4.55826L7.63329 4.66666L5.13725 8.41248C5.06384 8.50081 4.97003 8.57709 4.85584 8.64133C4.7498 8.70556 4.63968 8.73367 4.52548 8.72564C4.41944 8.73367 4.30932 8.70556 4.19512 8.64133C4.08908 8.57709 3.99935 8.50081 3.92594 8.41248L1.58896 4.77506L1.90708 4.13671V10.2312C1.90708 10.44 1.84183 10.6166 1.71131 10.7611C1.5808 10.8976 1.40951 10.9659 1.19742 10.9659C0.993498 10.9659 0.82628 10.8976 0.695768 10.7611C0.565256 10.6166 0.5 10.44 0.5 10.2312V3.25747C0.5 3.05673 0.573413 2.88409 0.720239 2.73956C0.875222 2.59502 1.05875 2.52276 1.27084 2.52276Z" stroke="#5C4A3C" mask="url(#path-1-outside-1_67_27)"/>
<path d="M13.486 11.0863C12.7926 11.0863 12.189 10.9458 11.6751 10.6648C11.1694 10.3757 10.7778 9.98629 10.5005 9.49648C10.2313 9.00667 10.0967 8.45263 10.0967 7.83435C10.0967 7.11168 10.2436 6.49742 10.5372 5.99155C10.839 5.47766 11.2306 5.0842 11.7118 4.8112C12.1931 4.53819 12.7029 4.40169 13.2413 4.40169C13.6573 4.40169 14.0488 4.486 14.4159 4.65462C14.7911 4.82324 15.1214 5.0561 15.4069 5.3532C15.6924 5.64226 15.9168 5.97951 16.0799 6.36493C16.2512 6.75035 16.3368 7.15986 16.3368 7.59346C16.3287 7.78617 16.2512 7.94275 16.1044 8.06319C15.9575 8.18364 15.7862 8.24386 15.5905 8.24386H10.9165L10.5495 7.03942H15.0399L14.7707 7.28031V6.95511C14.7544 6.72225 14.6687 6.51348 14.5138 6.3288C14.3669 6.14411 14.1793 5.99958 13.9509 5.8952C13.7307 5.78278 13.4941 5.72657 13.2413 5.72657C12.9966 5.72657 12.7682 5.75869 12.5561 5.82293C12.344 5.88717 12.1605 5.99557 12.0055 6.14813C11.8505 6.30069 11.7281 6.50545 11.6384 6.7624C11.5487 7.01934 11.5038 7.34454 11.5038 7.73799C11.5038 8.17159 11.5935 8.54096 11.773 8.84608C11.9606 9.14318 12.1972 9.37202 12.4827 9.53261C12.7763 9.68518 13.0863 9.76146 13.4126 9.76146C13.7144 9.76146 13.955 9.73737 14.1345 9.68919C14.3139 9.64101 14.4567 9.58481 14.5627 9.52057C14.6769 9.4483 14.7789 9.38808 14.8686 9.3399C15.0154 9.26764 15.1541 9.2315 15.2846 9.2315C15.464 9.2315 15.6109 9.29173 15.7251 9.41217C15.8474 9.53261 15.9086 9.67313 15.9086 9.83372C15.9086 10.0505 15.7944 10.2473 15.566 10.4239C15.3539 10.6006 15.0562 10.7571 14.6728 10.8936C14.2894 11.0221 13.8938 11.0863 13.486 11.0863Z" stroke="#5C4A3C" mask="url(#path-1-outside-1_67_27)"/>
<path d="M21.119 4.40169C21.7226 4.40169 22.1794 4.52615 22.4894 4.77506C22.8075 5.02398 23.0237 5.35721 23.1379 5.77475C23.2602 6.18426 23.3214 6.64195 23.3214 7.14782V10.2312C23.3214 10.44 23.2521 10.6166 23.1134 10.7611C22.9747 10.8976 22.7993 10.9659 22.5873 10.9659C22.3752 10.9659 22.1998 10.8976 22.0611 10.7611C21.9225 10.6166 21.8531 10.44 21.8531 10.2312V7.14782C21.8531 6.88284 21.8164 6.64597 21.743 6.4372C21.6778 6.2204 21.5554 6.04776 21.376 5.91928C21.1965 5.79081 20.9396 5.72657 20.6051 5.72657C20.2788 5.72657 20.0015 5.79081 19.7731 5.91928C19.5529 6.04776 19.3816 6.2204 19.2592 6.4372C19.145 6.64597 19.0879 6.88284 19.0879 7.14782V10.2312C19.0879 10.44 19.0186 10.6166 18.8799 10.7611C18.7412 10.8976 18.5659 10.9659 18.3538 10.9659C18.1417 10.9659 17.9663 10.8976 17.8277 10.7611C17.689 10.6166 17.6197 10.44 17.6197 10.2312V5.25684C17.6197 5.04807 17.689 4.87543 17.8277 4.73893C17.9663 4.5944 18.1417 4.52213 18.3538 4.52213C18.5659 4.52213 18.7412 4.5944 18.8799 4.73893C19.0186 4.87543 19.0879 5.04807 19.0879 5.25684V5.77475L18.9044 5.73862C18.9778 5.60211 19.0838 5.45758 19.2225 5.30502C19.3612 5.14443 19.5243 4.99588 19.7119 4.85937C19.8995 4.72287 20.1116 4.61447 20.3482 4.53418C20.5847 4.44585 20.8417 4.40169 21.119 4.40169Z" stroke="#5C4A3C" mask="url(#path-1-outside-1_67_27)"/>
<path d="M29.7659 4.52213C29.978 4.52213 30.1533 4.5944 30.292 4.73893C30.4307 4.87543 30.5 5.04807 30.5 5.25684V8.31613C30.5 9.16727 30.2594 9.84175 29.7781 10.3396C29.2968 10.8374 28.6035 11.0863 27.6981 11.0863C26.7926 11.0863 26.0993 10.8374 25.618 10.3396C25.1449 9.84175 24.9084 9.16727 24.9084 8.31613V5.25684C24.9084 5.04807 24.9777 4.87543 25.1164 4.73893C25.2551 4.5944 25.4304 4.52213 25.6425 4.52213C25.8546 4.52213 26.03 4.5944 26.1686 4.73893C26.3073 4.87543 26.3766 5.04807 26.3766 5.25684V8.31613C26.3766 8.80593 26.4868 9.17128 26.707 9.41217C26.9272 9.64503 27.2576 9.76146 27.6981 9.76146C28.1467 9.76146 28.4811 9.64503 28.7014 9.41217C28.9216 9.17128 29.0317 8.80593 29.0317 8.31613V5.25684C29.0317 5.04807 29.1011 4.87543 29.2397 4.73893C29.3784 4.5944 29.5538 4.52213 29.7659 4.52213ZM27.7715 4.11262C27.7062 4.11262 27.6206 4.0805 27.5145 4.01626C27.4167 3.944 27.3718 3.84363 27.3799 3.71515C27.3799 3.64289 27.4044 3.56661 27.4534 3.48631L28.163 2.25778C28.2364 2.1293 28.3302 2.01689 28.4444 1.92053C28.5586 1.82418 28.6891 1.776 28.836 1.776C29.0644 1.776 29.2316 1.83622 29.3376 1.95667C29.4437 2.06908 29.4926 2.2096 29.4845 2.37822C29.4763 2.45852 29.4518 2.54283 29.411 2.63116C29.3784 2.71948 29.3254 2.80781 29.252 2.89613L28.3221 3.90786C28.2405 3.99619 28.1508 4.0524 28.0529 4.07649C27.955 4.10058 27.8612 4.11262 27.7715 4.11262Z" stroke="#5C4A3C" mask="url(#path-1-outside-1_67_27)"/>
<mask id="path-2-outside-2_67_27" maskUnits="userSpaceOnUse" x="-0.211304" y="-0.5" width="31" height="11" fill="black">
<rect fill="white" x="-0.211304" y="-0.5" width="31" height="11"/>
<path d="M1.5447 1.244C1.6567 1.244 1.7727 1.276 1.8927 1.34C2.0207 1.396 2.1167 1.472 2.1807 1.568L5.0967 6.056L4.4967 6.032L7.4847 1.568C7.6367 1.352 7.8327 1.244 8.0727 1.244C8.2647 1.244 8.4367 1.312 8.5887 1.448C8.7407 1.584 8.8167 1.76 8.8167 1.976V8.924C8.8167 9.132 8.7487 9.308 8.6127 9.452C8.4767 9.588 8.2967 9.656 8.0727 9.656C7.8487 9.656 7.6647 9.588 7.5207 9.452C7.3847 9.308 7.3167 9.132 7.3167 8.924V3.272L7.7847 3.38L5.3367 7.112C5.2647 7.2 5.1727 7.276 5.0607 7.34C4.9567 7.404 4.8487 7.432 4.7367 7.424C4.6327 7.432 4.5247 7.404 4.4127 7.34C4.3087 7.276 4.2207 7.2 4.1487 7.112L1.8567 3.488L2.1687 2.852V8.924C2.1687 9.132 2.1047 9.308 1.9767 9.452C1.8487 9.588 1.6807 9.656 1.4727 9.656C1.2727 9.656 1.1087 9.588 0.980696 9.452C0.852696 9.308 0.788696 9.132 0.788696 8.924V1.976C0.788696 1.776 0.860696 1.604 1.0047 1.46C1.1567 1.316 1.3367 1.244 1.5447 1.244Z"/>
<path d="M13.5247 9.776C12.8447 9.776 12.2527 9.636 11.7487 9.356C11.2527 9.068 10.8687 8.68 10.5967 8.192C10.3327 7.704 10.2007 7.152 10.2007 6.536C10.2007 5.816 10.3447 5.204 10.6327 4.7C10.9287 4.188 11.3127 3.796 11.7847 3.524C12.2567 3.252 12.7567 3.116 13.2847 3.116C13.6927 3.116 14.0767 3.2 14.4367 3.368C14.8047 3.536 15.1287 3.768 15.4087 4.064C15.6887 4.352 15.9087 4.688 16.0687 5.072C16.2367 5.456 16.3207 5.864 16.3207 6.296C16.3127 6.488 16.2367 6.644 16.0927 6.764C15.9487 6.884 15.7807 6.944 15.5887 6.944H11.0047L10.6447 5.744H15.0487L14.7847 5.984V5.66C14.7687 5.428 14.6847 5.22 14.5327 5.036C14.3887 4.852 14.2047 4.708 13.9807 4.604C13.7647 4.492 13.5327 4.436 13.2847 4.436C13.0447 4.436 12.8207 4.468 12.6127 4.532C12.4047 4.596 12.2247 4.704 12.0727 4.856C11.9207 5.008 11.8007 5.212 11.7127 5.468C11.6247 5.724 11.5807 6.048 11.5807 6.44C11.5807 6.872 11.6687 7.24 11.8447 7.544C12.0287 7.84 12.2607 8.068 12.5407 8.228C12.8287 8.38 13.1327 8.456 13.4527 8.456C13.7487 8.456 13.9847 8.432 14.1607 8.384C14.3367 8.336 14.4767 8.28 14.5807 8.216C14.6927 8.144 14.7927 8.084 14.8807 8.036C15.0247 7.964 15.1607 7.928 15.2887 7.928C15.4647 7.928 15.6087 7.988 15.7207 8.108C15.8407 8.228 15.9007 8.368 15.9007 8.528C15.9007 8.744 15.7887 8.94 15.5647 9.116C15.3567 9.292 15.0647 9.448 14.6887 9.584C14.3127 9.712 13.9247 9.776 13.5247 9.776Z"/>
<path d="M21.0109 3.116C21.6029 3.116 22.0509 3.24 22.3549 3.488C22.6669 3.736 22.8789 4.068 22.9909 4.484C23.1109 4.892 23.1709 5.348 23.1709 5.852V8.924C23.1709 9.132 23.1029 9.308 22.9669 9.452C22.8309 9.588 22.6589 9.656 22.4509 9.656C22.2429 9.656 22.0709 9.588 21.9349 9.452C21.7989 9.308 21.7309 9.132 21.7309 8.924V5.852C21.7309 5.588 21.6949 5.352 21.6229 5.144C21.5589 4.928 21.4389 4.756 21.2629 4.628C21.0869 4.5 20.8349 4.436 20.5069 4.436C20.1869 4.436 19.9149 4.5 19.6909 4.628C19.4749 4.756 19.3069 4.928 19.1869 5.144C19.0749 5.352 19.0189 5.588 19.0189 5.852V8.924C19.0189 9.132 18.9509 9.308 18.8149 9.452C18.6789 9.588 18.5069 9.656 18.2989 9.656C18.0909 9.656 17.9189 9.588 17.7829 9.452C17.6469 9.308 17.5789 9.132 17.5789 8.924V3.968C17.5789 3.76 17.6469 3.588 17.7829 3.452C17.9189 3.308 18.0909 3.236 18.2989 3.236C18.5069 3.236 18.6789 3.308 18.8149 3.452C18.9509 3.588 19.0189 3.76 19.0189 3.968V4.484L18.8389 4.448C18.9109 4.312 19.0149 4.168 19.1509 4.016C19.2869 3.856 19.4469 3.708 19.6309 3.572C19.8149 3.436 20.0229 3.328 20.2549 3.248C20.4869 3.16 20.7389 3.116 21.0109 3.116Z"/>
<path d="M29.4913 3.236C29.6993 3.236 29.8713 3.308 30.0073 3.452C30.1433 3.588 30.2113 3.76 30.2113 3.968V7.016C30.2113 7.864 29.9753 8.536 29.5033 9.032C29.0313 9.528 28.3513 9.776 27.4633 9.776C26.5753 9.776 25.8953 9.528 25.4233 9.032C24.9593 8.536 24.7273 7.864 24.7273 7.016V3.968C24.7273 3.76 24.7953 3.588 24.9313 3.452C25.0673 3.308 25.2393 3.236 25.4473 3.236C25.6553 3.236 25.8273 3.308 25.9633 3.452C26.0993 3.588 26.1673 3.76 26.1673 3.968V7.016C26.1673 7.504 26.2753 7.868 26.4913 8.108C26.7073 8.34 27.0313 8.456 27.4633 8.456C27.9033 8.456 28.2313 8.34 28.4473 8.108C28.6633 7.868 28.7713 7.504 28.7713 7.016V3.968C28.7713 3.76 28.8393 3.588 28.9753 3.452C29.1113 3.308 29.2833 3.236 29.4913 3.236ZM27.5353 2.828C27.4713 2.828 27.3873 2.796 27.2833 2.732C27.1873 2.66 27.1433 2.56 27.1513 2.432C27.1513 2.36 27.1753 2.284 27.2233 2.204L27.9193 0.98C27.9913 0.852 28.0833 0.74 28.1953 0.644C28.3073 0.548 28.4353 0.5 28.5793 0.5C28.8033 0.5 28.9673 0.56 29.0713 0.68C29.1753 0.792 29.2233 0.932 29.2153 1.1C29.2073 1.18 29.1833 1.264 29.1433 1.352C29.1113 1.44 29.0593 1.528 28.9873 1.616L28.0753 2.624C27.9953 2.712 27.9073 2.768 27.8113 2.792C27.7153 2.816 27.6233 2.828 27.5353 2.828Z"/>
</mask>
<path d="M1.5447 1.244C1.6567 1.244 1.7727 1.276 1.8927 1.34C2.0207 1.396 2.1167 1.472 2.1807 1.568L5.0967 6.056L4.4967 6.032L7.4847 1.568C7.6367 1.352 7.8327 1.244 8.0727 1.244C8.2647 1.244 8.4367 1.312 8.5887 1.448C8.7407 1.584 8.8167 1.76 8.8167 1.976V8.924C8.8167 9.132 8.7487 9.308 8.6127 9.452C8.4767 9.588 8.2967 9.656 8.0727 9.656C7.8487 9.656 7.6647 9.588 7.5207 9.452C7.3847 9.308 7.3167 9.132 7.3167 8.924V3.272L7.7847 3.38L5.3367 7.112C5.2647 7.2 5.1727 7.276 5.0607 7.34C4.9567 7.404 4.8487 7.432 4.7367 7.424C4.6327 7.432 4.5247 7.404 4.4127 7.34C4.3087 7.276 4.2207 7.2 4.1487 7.112L1.8567 3.488L2.1687 2.852V8.924C2.1687 9.132 2.1047 9.308 1.9767 9.452C1.8487 9.588 1.6807 9.656 1.4727 9.656C1.2727 9.656 1.1087 9.588 0.980696 9.452C0.852696 9.308 0.788696 9.132 0.788696 8.924V1.976C0.788696 1.776 0.860696 1.604 1.0047 1.46C1.1567 1.316 1.3367 1.244 1.5447 1.244Z" fill="white"/>
<path d="M13.5247 9.776C12.8447 9.776 12.2527 9.636 11.7487 9.356C11.2527 9.068 10.8687 8.68 10.5967 8.192C10.3327 7.704 10.2007 7.152 10.2007 6.536C10.2007 5.816 10.3447 5.204 10.6327 4.7C10.9287 4.188 11.3127 3.796 11.7847 3.524C12.2567 3.252 12.7567 3.116 13.2847 3.116C13.6927 3.116 14.0767 3.2 14.4367 3.368C14.8047 3.536 15.1287 3.768 15.4087 4.064C15.6887 4.352 15.9087 4.688 16.0687 5.072C16.2367 5.456 16.3207 5.864 16.3207 6.296C16.3127 6.488 16.2367 6.644 16.0927 6.764C15.9487 6.884 15.7807 6.944 15.5887 6.944H11.0047L10.6447 5.744H15.0487L14.7847 5.984V5.66C14.7687 5.428 14.6847 5.22 14.5327 5.036C14.3887 4.852 14.2047 4.708 13.9807 4.604C13.7647 4.492 13.5327 4.436 13.2847 4.436C13.0447 4.436 12.8207 4.468 12.6127 4.532C12.4047 4.596 12.2247 4.704 12.0727 4.856C11.9207 5.008 11.8007 5.212 11.7127 5.468C11.6247 5.724 11.5807 6.048 11.5807 6.44C11.5807 6.872 11.6687 7.24 11.8447 7.544C12.0287 7.84 12.2607 8.068 12.5407 8.228C12.8287 8.38 13.1327 8.456 13.4527 8.456C13.7487 8.456 13.9847 8.432 14.1607 8.384C14.3367 8.336 14.4767 8.28 14.5807 8.216C14.6927 8.144 14.7927 8.084 14.8807 8.036C15.0247 7.964 15.1607 7.928 15.2887 7.928C15.4647 7.928 15.6087 7.988 15.7207 8.108C15.8407 8.228 15.9007 8.368 15.9007 8.528C15.9007 8.744 15.7887 8.94 15.5647 9.116C15.3567 9.292 15.0647 9.448 14.6887 9.584C14.3127 9.712 13.9247 9.776 13.5247 9.776Z" fill="white"/>
<path d="M21.0109 3.116C21.6029 3.116 22.0509 3.24 22.3549 3.488C22.6669 3.736 22.8789 4.068 22.9909 4.484C23.1109 4.892 23.1709 5.348 23.1709 5.852V8.924C23.1709 9.132 23.1029 9.308 22.9669 9.452C22.8309 9.588 22.6589 9.656 22.4509 9.656C22.2429 9.656 22.0709 9.588 21.9349 9.452C21.7989 9.308 21.7309 9.132 21.7309 8.924V5.852C21.7309 5.588 21.6949 5.352 21.6229 5.144C21.5589 4.928 21.4389 4.756 21.2629 4.628C21.0869 4.5 20.8349 4.436 20.5069 4.436C20.1869 4.436 19.9149 4.5 19.6909 4.628C19.4749 4.756 19.3069 4.928 19.1869 5.144C19.0749 5.352 19.0189 5.588 19.0189 5.852V8.924C19.0189 9.132 18.9509 9.308 18.8149 9.452C18.6789 9.588 18.5069 9.656 18.2989 9.656C18.0909 9.656 17.9189 9.588 17.7829 9.452C17.6469 9.308 17.5789 9.132 17.5789 8.924V3.968C17.5789 3.76 17.6469 3.588 17.7829 3.452C17.9189 3.308 18.0909 3.236 18.2989 3.236C18.5069 3.236 18.6789 3.308 18.8149 3.452C18.9509 3.588 19.0189 3.76 19.0189 3.968V4.484L18.8389 4.448C18.9109 4.312 19.0149 4.168 19.1509 4.016C19.2869 3.856 19.4469 3.708 19.6309 3.572C19.8149 3.436 20.0229 3.328 20.2549 3.248C20.4869 3.16 20.7389 3.116 21.0109 3.116Z" fill="white"/>
<path d="M29.4913 3.236C29.6993 3.236 29.8713 3.308 30.0073 3.452C30.1433 3.588 30.2113 3.76 30.2113 3.968V7.016C30.2113 7.864 29.9753 8.536 29.5033 9.032C29.0313 9.528 28.3513 9.776 27.4633 9.776C26.5753 9.776 25.8953 9.528 25.4233 9.032C24.9593 8.536 24.7273 7.864 24.7273 7.016V3.968C24.7273 3.76 24.7953 3.588 24.9313 3.452C25.0673 3.308 25.2393 3.236 25.4473 3.236C25.6553 3.236 25.8273 3.308 25.9633 3.452C26.0993 3.588 26.1673 3.76 26.1673 3.968V7.016C26.1673 7.504 26.2753 7.868 26.4913 8.108C26.7073 8.34 27.0313 8.456 27.4633 8.456C27.9033 8.456 28.2313 8.34 28.4473 8.108C28.6633 7.868 28.7713 7.504 28.7713 7.016V3.968C28.7713 3.76 28.8393 3.588 28.9753 3.452C29.1113 3.308 29.2833 3.236 29.4913 3.236ZM27.5353 2.828C27.4713 2.828 27.3873 2.796 27.2833 2.732C27.1873 2.66 27.1433 2.56 27.1513 2.432C27.1513 2.36 27.1753 2.284 27.2233 2.204L27.9193 0.98C27.9913 0.852 28.0833 0.74 28.1953 0.644C28.3073 0.548 28.4353 0.5 28.5793 0.5C28.8033 0.5 28.9673 0.56 29.0713 0.68C29.1753 0.792 29.2233 0.932 29.2153 1.1C29.2073 1.18 29.1833 1.264 29.1433 1.352C29.1113 1.44 29.0593 1.528 28.9873 1.616L28.0753 2.624C27.9953 2.712 27.9073 2.768 27.8113 2.792C27.7153 2.816 27.6233 2.828 27.5353 2.828Z" fill="white"/>
<path d="M1.5447 1.244C1.6567 1.244 1.7727 1.276 1.8927 1.34C2.0207 1.396 2.1167 1.472 2.1807 1.568L5.0967 6.056L4.4967 6.032L7.4847 1.568C7.6367 1.352 7.8327 1.244 8.0727 1.244C8.2647 1.244 8.4367 1.312 8.5887 1.448C8.7407 1.584 8.8167 1.76 8.8167 1.976V8.924C8.8167 9.132 8.7487 9.308 8.6127 9.452C8.4767 9.588 8.2967 9.656 8.0727 9.656C7.8487 9.656 7.6647 9.588 7.5207 9.452C7.3847 9.308 7.3167 9.132 7.3167 8.924V3.272L7.7847 3.38L5.3367 7.112C5.2647 7.2 5.1727 7.276 5.0607 7.34C4.9567 7.404 4.8487 7.432 4.7367 7.424C4.6327 7.432 4.5247 7.404 4.4127 7.34C4.3087 7.276 4.2207 7.2 4.1487 7.112L1.8567 3.488L2.1687 2.852V8.924C2.1687 9.132 2.1047 9.308 1.9767 9.452C1.8487 9.588 1.6807 9.656 1.4727 9.656C1.2727 9.656 1.1087 9.588 0.980696 9.452C0.852696 9.308 0.788696 9.132 0.788696 8.924V1.976C0.788696 1.776 0.860696 1.604 1.0047 1.46C1.1567 1.316 1.3367 1.244 1.5447 1.244Z" stroke="#5C4A3C" mask="url(#path-2-outside-2_67_27)"/>
<path d="M13.5247 9.776C12.8447 9.776 12.2527 9.636 11.7487 9.356C11.2527 9.068 10.8687 8.68 10.5967 8.192C10.3327 7.704 10.2007 7.152 10.2007 6.536C10.2007 5.816 10.3447 5.204 10.6327 4.7C10.9287 4.188 11.3127 3.796 11.7847 3.524C12.2567 3.252 12.7567 3.116 13.2847 3.116C13.6927 3.116 14.0767 3.2 14.4367 3.368C14.8047 3.536 15.1287 3.768 15.4087 4.064C15.6887 4.352 15.9087 4.688 16.0687 5.072C16.2367 5.456 16.3207 5.864 16.3207 6.296C16.3127 6.488 16.2367 6.644 16.0927 6.764C15.9487 6.884 15.7807 6.944 15.5887 6.944H11.0047L10.6447 5.744H15.0487L14.7847 5.984V5.66C14.7687 5.428 14.6847 5.22 14.5327 5.036C14.3887 4.852 14.2047 4.708 13.9807 4.604C13.7647 4.492 13.5327 4.436 13.2847 4.436C13.0447 4.436 12.8207 4.468 12.6127 4.532C12.4047 4.596 12.2247 4.704 12.0727 4.856C11.9207 5.008 11.8007 5.212 11.7127 5.468C11.6247 5.724 11.5807 6.048 11.5807 6.44C11.5807 6.872 11.6687 7.24 11.8447 7.544C12.0287 7.84 12.2607 8.068 12.5407 8.228C12.8287 8.38 13.1327 8.456 13.4527 8.456C13.7487 8.456 13.9847 8.432 14.1607 8.384C14.3367 8.336 14.4767 8.28 14.5807 8.216C14.6927 8.144 14.7927 8.084 14.8807 8.036C15.0247 7.964 15.1607 7.928 15.2887 7.928C15.4647 7.928 15.6087 7.988 15.7207 8.108C15.8407 8.228 15.9007 8.368 15.9007 8.528C15.9007 8.744 15.7887 8.94 15.5647 9.116C15.3567 9.292 15.0647 9.448 14.6887 9.584C14.3127 9.712 13.9247 9.776 13.5247 9.776Z" stroke="#5C4A3C" mask="url(#path-2-outside-2_67_27)"/>
<path d="M21.0109 3.116C21.6029 3.116 22.0509 3.24 22.3549 3.488C22.6669 3.736 22.8789 4.068 22.9909 4.484C23.1109 4.892 23.1709 5.348 23.1709 5.852V8.924C23.1709 9.132 23.1029 9.308 22.9669 9.452C22.8309 9.588 22.6589 9.656 22.4509 9.656C22.2429 9.656 22.0709 9.588 21.9349 9.452C21.7989 9.308 21.7309 9.132 21.7309 8.924V5.852C21.7309 5.588 21.6949 5.352 21.6229 5.144C21.5589 4.928 21.4389 4.756 21.2629 4.628C21.0869 4.5 20.8349 4.436 20.5069 4.436C20.1869 4.436 19.9149 4.5 19.6909 4.628C19.4749 4.756 19.3069 4.928 19.1869 5.144C19.0749 5.352 19.0189 5.588 19.0189 5.852V8.924C19.0189 9.132 18.9509 9.308 18.8149 9.452C18.6789 9.588 18.5069 9.656 18.2989 9.656C18.0909 9.656 17.9189 9.588 17.7829 9.452C17.6469 9.308 17.5789 9.132 17.5789 8.924V3.968C17.5789 3.76 17.6469 3.588 17.7829 3.452C17.9189 3.308 18.0909 3.236 18.2989 3.236C18.5069 3.236 18.6789 3.308 18.8149 3.452C18.9509 3.588 19.0189 3.76 19.0189 3.968V4.484L18.8389 4.448C18.9109 4.312 19.0149 4.168 19.1509 4.016C19.2869 3.856 19.4469 3.708 19.6309 3.572C19.8149 3.436 20.0229 3.328 20.2549 3.248C20.4869 3.16 20.7389 3.116 21.0109 3.116Z" stroke="#5C4A3C" mask="url(#path-2-outside-2_67_27)"/>
<path d="M29.4913 3.236C29.6993 3.236 29.8713 3.308 30.0073 3.452C30.1433 3.588 30.2113 3.76 30.2113 3.968V7.016C30.2113 7.864 29.9753 8.536 29.5033 9.032C29.0313 9.528 28.3513 9.776 27.4633 9.776C26.5753 9.776 25.8953 9.528 25.4233 9.032C24.9593 8.536 24.7273 7.864 24.7273 7.016V3.968C24.7273 3.76 24.7953 3.588 24.9313 3.452C25.0673 3.308 25.2393 3.236 25.4473 3.236C25.6553 3.236 25.8273 3.308 25.9633 3.452C26.0993 3.588 26.1673 3.76 26.1673 3.968V7.016C26.1673 7.504 26.2753 7.868 26.4913 8.108C26.7073 8.34 27.0313 8.456 27.4633 8.456C27.9033 8.456 28.2313 8.34 28.4473 8.108C28.6633 7.868 28.7713 7.504 28.7713 7.016V3.968C28.7713 3.76 28.8393 3.588 28.9753 3.452C29.1113 3.308 29.2833 3.236 29.4913 3.236ZM27.5353 2.828C27.4713 2.828 27.3873 2.796 27.2833 2.732C27.1873 2.66 27.1433 2.56 27.1513 2.432C27.1513 2.36 27.1753 2.284 27.2233 2.204L27.9193 0.98C27.9913 0.852 28.0833 0.74 28.1953 0.644C28.3073 0.548 28.4353 0.5 28.5793 0.5C28.8033 0.5 28.9673 0.56 29.0713 0.68C29.1753 0.792 29.2233 0.932 29.2153 1.1C29.2073 1.18 29.1833 1.264 29.1433 1.352C29.1113 1.44 29.0593 1.528 28.9873 1.616L28.0753 2.624C27.9953 2.712 27.9073 2.768 27.8113 2.792C27.7153 2.816 27.6233 2.828 27.5353 2.828Z" stroke="#5C4A3C" mask="url(#path-2-outside-2_67_27)"/>
</svg>
