<svg width="24" height="24" viewBox="0 0 24 24" fill="none" xmlns="http://www.w3.org/2000/svg">
<mask id="mask0_66_29" style="mask-type:alpha" maskUnits="userSpaceOnUse" x="0" y="0" width="24" height="24">
<rect width="24" height="24" fill="#D9D9D9"/>
</mask>
<g mask="url(#mask0_66_29)">
<path d="M15.55 11.15C15.7 11.25 15.8125 11.375 15.8875 11.525C15.9625 11.675 16 11.8333 16 12C16 12.1667 15.9625 12.325 15.8875 12.475C15.8125 12.625 15.7 12.75 15.55 12.85L7.4 18.025C7.31667 18.075 7.22917 18.1125 7.1375 18.1375C7.04583 18.1625 6.95833 18.175 6.875 18.175C6.60833 18.175 6.375 18.0792 6.175 17.8875C5.975 17.6958 5.875 17.4583 5.875 17.175L5.875 6.825C5.875 6.54167 5.975 6.30417 6.175 6.1125C6.375 5.92083 6.60833 5.825 6.875 5.825C6.95833 5.825 7.04583 5.8375 7.1375 5.8625C7.22917 5.8875 7.31667 5.925 7.4 5.975L15.55 11.15Z" fill="#5C4A3C"/>
</g>
</svg>
